<?xml version="1.0" encoding="UTF-8"?>
<svg xmlns="http://www.w3.org/2000/svg" xmlns:xlink="http://www.w3.org/1999/xlink" width="100pt" height="100pt" viewBox="0 0 100 100" version="1.1">
<g id="surface1646075">
<path style=" stroke:none;fill-rule:nonzero;fill:rgb(40%,40%,40%);fill-opacity:1;" d="M 34.699219 15 C 34.398438 14.996094 34.101562 15.007812 33.808594 15.035156 C 32.648438 15.136719 31.566406 15.472656 30.59375 16.042969 C 28.113281 17.488281 26.699219 20.324219 26.234375 23.996094 C 25.785156 27.558594 26.242188 31.976562 27.449219 36.875 C 22.601562 38.257812 18.546875 40.058594 15.6875 42.226562 C 12.742188 44.460938 11 47.109375 11 50 C 11 52.890625 12.742188 55.535156 15.6875 57.773438 C 18.546875 59.941406 22.601562 61.746094 27.449219 63.128906 C 26.242188 68.023438 25.785156 72.441406 26.234375 76.003906 C 26.699219 79.679688 28.113281 82.511719 30.59375 83.957031 C 31.785156 84.652344 33.136719 85.003906 34.601562 85.003906 C 35.535156 85.003906 36.515625 84.863281 37.539062 84.589844 C 41.390625 83.558594 45.683594 80.59375 50 76.359375 C 54.316406 80.59375 58.609375 83.558594 62.460938 84.589844 C 63.484375 84.863281 64.464844 85.003906 65.398438 85.003906 C 66.863281 85.003906 68.214844 84.65625 69.40625 83.957031 C 71.886719 82.511719 73.296875 79.679688 73.761719 76.003906 C 74.210938 72.441406 73.757812 68.023438 72.550781 63.128906 C 77.398438 61.746094 81.453125 59.941406 84.3125 57.773438 C 87.257812 55.535156 89 52.890625 89 50 C 89 47.109375 87.257812 44.460938 84.3125 42.226562 C 81.453125 40.058594 77.398438 38.257812 72.550781 36.875 C 73.757812 31.976562 74.214844 27.5625 73.765625 24 C 73.300781 20.324219 71.886719 17.488281 69.40625 16.042969 C 67.457031 14.902344 65.089844 14.707031 62.460938 15.410156 C 58.609375 16.441406 54.316406 19.40625 50 23.644531 C 45.683594 19.410156 41.390625 16.441406 37.539062 15.410156 C 36.550781 15.144531 35.601562 15.007812 34.699219 15 Z M 34.695312 15.996094 C 35.503906 16.003906 36.363281 16.132812 37.277344 16.378906 C 40.953125 17.363281 45.285156 20.292969 49.648438 24.644531 C 49.839844 24.839844 50.160156 24.839844 50.355469 24.644531 C 54.714844 20.292969 59.046875 17.359375 62.722656 16.378906 C 65.164062 15.722656 67.210938 15.917969 68.902344 16.902344 C 71.035156 18.148438 72.332031 20.632812 72.773438 24.125 C 73.210938 27.617188 72.777344 32.074219 71.5 37.078125 C 71.429688 37.34375 71.585938 37.609375 71.851562 37.683594 C 76.828125 39.054688 80.90625 40.898438 83.707031 43.023438 C 86.503906 45.144531 88 47.511719 88 50 C 88 52.488281 86.503906 54.855469 83.707031 56.980469 C 80.90625 59.101562 76.828125 60.941406 71.851562 62.316406 C 71.585938 62.390625 71.429688 62.65625 71.5 62.921875 C 72.777344 67.925781 73.210938 72.386719 72.773438 75.878906 C 72.332031 79.367188 71.035156 81.851562 68.902344 83.097656 C 67.871094 83.699219 66.707031 84.003906 65.398438 84.003906 C 64.566406 84.003906 63.671875 83.878906 62.722656 83.625 C 59.046875 82.640625 54.714844 79.707031 50.355469 75.355469 C 50.160156 75.160156 49.839844 75.160156 49.644531 75.355469 C 45.285156 79.707031 40.953125 82.640625 37.277344 83.625 C 36.328125 83.878906 35.433594 84.003906 34.601562 84.003906 C 33.292969 84.003906 32.132812 83.699219 31.097656 83.097656 C 28.964844 81.851562 27.667969 79.367188 27.226562 75.878906 C 26.789062 72.386719 27.222656 67.929688 28.5 62.925781 C 28.570312 62.660156 28.414062 62.390625 28.148438 62.316406 C 23.171875 60.941406 19.09375 59.101562 16.292969 56.980469 C 13.496094 54.855469 12 52.488281 12 50 C 12 47.511719 13.496094 45.144531 16.292969 43.023438 C 19.09375 40.898438 23.171875 39.054688 28.148438 37.683594 C 28.414062 37.609375 28.570312 37.34375 28.5 37.078125 C 27.222656 32.070312 26.789062 27.617188 27.226562 24.125 C 27.667969 20.632812 28.964844 18.148438 31.097656 16.90625 C 31.941406 16.410156 32.878906 16.117188 33.90625 16.027344 C 34.164062 16.003906 34.425781 15.992188 34.695312 15.996094 Z M 34.613281 18 C 33.679688 18 32.832031 18.207031 32.105469 18.632812 C 30.34375 19.660156 29.390625 21.945312 29.125 25.03125 C 28.863281 28.117188 29.292969 32.0625 30.453125 36.597656 C 30.519531 36.859375 30.785156 37.019531 31.046875 36.960938 C 34.195312 36.253906 37.636719 35.71875 41.296875 35.390625 C 41.445312 35.375 41.578125 35.296875 41.660156 35.175781 C 43.808594 32.082031 46.042969 29.261719 48.289062 26.800781 C 48.46875 26.601562 48.460938 26.296875 48.273438 26.109375 C 44.21875 22.046875 40.242188 19.242188 36.757812 18.308594 C 36 18.105469 35.285156 18 34.613281 18 Z M 65.386719 18 C 64.714844 18 64 18.105469 63.238281 18.308594 C 59.757812 19.242188 55.78125 22.046875 51.726562 26.109375 C 51.539062 26.296875 51.53125 26.601562 51.710938 26.796875 C 53.957031 29.261719 56.191406 32.078125 58.335938 35.175781 C 58.421875 35.296875 58.554688 35.375 58.703125 35.386719 C 62.363281 35.71875 65.804688 36.253906 68.953125 36.960938 C 69.214844 37.019531 69.480469 36.859375 69.546875 36.597656 C 70.707031 32.0625 71.136719 28.117188 70.871094 25.03125 C 70.609375 21.945312 69.65625 19.660156 67.894531 18.628906 C 67.167969 18.207031 66.316406 18 65.382812 18 Z M 34.613281 19 C 35.179688 19 35.8125 19.089844 36.503906 19.273438 C 39.585938 20.101562 43.367188 22.726562 47.230469 26.527344 C 45.109375 28.890625 43.007812 31.523438 40.984375 34.425781 C 37.554688 34.746094 34.332031 35.253906 31.339844 35.90625 C 30.289062 31.652344 29.882812 27.929688 30.125 25.113281 C 30.371094 22.195312 31.28125 20.269531 32.609375 19.492188 C 33.167969 19.167969 33.828125 19 34.617188 19 Z M 65.386719 19 C 66.171875 19 66.832031 19.167969 67.390625 19.492188 C 68.71875 20.269531 69.628906 22.195312 69.878906 25.117188 C 70.117188 27.933594 69.710938 31.652344 68.664062 35.910156 C 65.664062 35.257812 62.445312 34.746094 59.019531 34.425781 C 56.992188 31.523438 54.890625 28.890625 52.769531 26.527344 C 56.632812 22.726562 60.414062 20.101562 63.5 19.273438 C 64.1875 19.089844 64.820312 19 65.386719 19 Z M 49.964844 28.144531 C 49.835938 28.152344 49.714844 28.210938 49.628906 28.308594 C 47.980469 30.132812 46.335938 32.148438 44.734375 34.324219 C 44.617188 34.480469 44.605469 34.6875 44.695312 34.859375 C 44.785156 35.027344 44.96875 35.128906 45.160156 35.121094 C 46.746094 35.042969 48.355469 35 50 35 C 51.644531 35 53.253906 35.046875 54.839844 35.121094 C 55.03125 35.132812 55.214844 35.03125 55.304688 34.859375 C 55.398438 34.691406 55.382812 34.480469 55.269531 34.324219 C 53.664062 32.144531 52.019531 30.132812 50.371094 28.308594 C 50.269531 28.195312 50.121094 28.132812 49.96875 28.144531 Z M 50 29.433594 C 51.273438 30.867188 52.539062 32.441406 53.792969 34.097656 C 52.539062 34.046875 51.289062 34 50 34 C 48.710938 34 47.460938 34.046875 46.207031 34.097656 C 47.460938 32.441406 48.726562 30.867188 50 29.433594 Z M 50 37 C 47.542969 37 45.171875 37.09375 42.902344 37.265625 C 42.75 37.273438 42.609375 37.355469 42.523438 37.484375 C 41.246094 39.386719 40 41.375 38.8125 43.457031 C 37.585938 45.601562 36.488281 47.714844 35.503906 49.785156 C 35.4375 49.921875 35.4375 50.082031 35.503906 50.214844 C 36.488281 52.285156 37.585938 54.398438 38.8125 56.546875 C 40 58.625 41.246094 60.613281 42.523438 62.515625 C 42.609375 62.644531 42.75 62.726562 42.902344 62.734375 C 45.171875 62.90625 47.542969 63 50 63 C 52.457031 63 54.828125 62.90625 57.101562 62.734375 C 57.253906 62.726562 57.390625 62.644531 57.476562 62.515625 C 58.753906 60.613281 60.003906 58.625 61.191406 56.546875 C 62.414062 54.398438 63.515625 52.285156 64.5 50.214844 C 64.566406 50.082031 64.566406 49.921875 64.5 49.785156 C 63.515625 47.714844 62.414062 45.601562 61.191406 43.457031 C 61.191406 43.453125 61.191406 43.453125 61.191406 43.453125 C 60.003906 41.375 58.753906 39.386719 57.476562 37.484375 C 57.390625 37.355469 57.25 37.273438 57.097656 37.265625 C 54.824219 37.09375 52.457031 37 50 37 Z M 39.132812 37.628906 C 39.105469 37.628906 39.082031 37.628906 39.054688 37.632812 C 36.414062 37.949219 33.941406 38.375 31.652344 38.886719 C 31.515625 38.914062 31.398438 39 31.328125 39.121094 C 31.257812 39.242188 31.242188 39.386719 31.28125 39.519531 C 31.980469 41.789062 32.847656 44.175781 33.894531 46.652344 C 33.96875 46.828125 34.144531 46.949219 34.335938 46.957031 C 34.53125 46.964844 34.710938 46.855469 34.800781 46.683594 C 35.515625 45.285156 36.265625 43.875 37.074219 42.464844 C 37.074219 42.464844 37.074219 42.464844 37.078125 42.464844 C 37.871094 41.066406 38.695312 39.71875 39.535156 38.398438 C 39.632812 38.246094 39.640625 38.054688 39.554688 37.894531 C 39.472656 37.738281 39.3125 37.636719 39.132812 37.628906 Z M 60.894531 37.628906 C 60.878906 37.628906 60.863281 37.628906 60.847656 37.632812 C 60.671875 37.644531 60.515625 37.75 60.4375 37.90625 C 60.359375 38.0625 60.371094 38.25 60.464844 38.398438 C 61.304688 39.71875 62.128906 41.066406 62.925781 42.460938 C 62.925781 42.464844 62.925781 42.464844 62.925781 42.464844 C 63.730469 43.875 64.484375 45.28125 65.199219 46.683594 C 65.289062 46.855469 65.46875 46.964844 65.664062 46.957031 C 65.855469 46.949219 66.03125 46.832031 66.105469 46.652344 C 67.152344 44.175781 68.019531 41.792969 68.71875 39.519531 C 68.761719 39.386719 68.746094 39.242188 68.675781 39.121094 C 68.605469 39 68.488281 38.914062 68.351562 38.886719 C 66.058594 38.375 63.585938 37.949219 60.945312 37.632812 C 60.929688 37.628906 60.910156 37.628906 60.894531 37.628906 Z M 50 38 C 52.347656 38 54.601562 38.09375 56.777344 38.25 C 57.996094 40.074219 59.1875 41.96875 60.320312 43.949219 C 61.492188 46 62.535156 48.019531 63.480469 50 C 62.535156 51.980469 61.492188 54 60.320312 56.050781 C 59.191406 58.03125 57.996094 59.925781 56.777344 61.75 C 54.601562 61.90625 52.347656 62 50 62 C 47.652344 62 45.398438 61.90625 43.222656 61.75 C 42.003906 59.925781 40.808594 58.03125 39.679688 56.050781 C 38.507812 54 37.464844 51.980469 36.519531 50 C 37.464844 48.019531 38.507812 46 39.679688 43.949219 C 40.8125 41.964844 42.003906 40.074219 43.226562 38.25 C 45.398438 38.09375 47.652344 38 50 38 Z M 38.121094 38.800781 C 37.472656 39.839844 36.828125 40.878906 36.207031 41.964844 C 35.578125 43.0625 35.007812 44.152344 34.441406 45.242188 C 33.675781 43.359375 32.992188 41.519531 32.433594 39.761719 C 34.214844 39.382812 36.128906 39.070312 38.121094 38.800781 Z M 61.878906 38.804688 C 63.871094 39.070312 65.785156 39.382812 67.566406 39.765625 C 67.007812 41.519531 66.320312 43.359375 65.554688 45.242188 C 64.988281 44.152344 64.421875 43.066406 63.792969 41.96875 C 63.175781 40.878906 62.523438 39.84375 61.878906 38.804688 Z M 28.824219 39.601562 C 28.78125 39.601562 28.742188 39.605469 28.703125 39.617188 C 24.195312 40.859375 20.566406 42.445312 18.03125 44.214844 C 15.496094 45.980469 14 47.953125 14 50 C 14 52.046875 15.496094 54.019531 18.03125 55.789062 C 20.566406 57.554688 24.195312 59.140625 28.703125 60.382812 C 28.964844 60.453125 29.234375 60.304688 29.3125 60.046875 C 30.273438 56.910156 31.539062 53.605469 33.097656 50.210938 C 33.15625 50.078125 33.15625 49.921875 33.097656 49.792969 C 31.539062 46.394531 30.273438 43.089844 29.3125 39.953125 C 29.246094 39.738281 29.046875 39.59375 28.824219 39.601562 Z M 71.148438 39.601562 C 70.933594 39.605469 70.75 39.75 70.6875 39.953125 C 69.726562 43.089844 68.460938 46.394531 66.902344 49.792969 C 66.84375 49.921875 66.84375 50.078125 66.902344 50.207031 C 68.460938 53.605469 69.726562 56.910156 70.6875 60.046875 C 70.765625 60.304688 71.035156 60.453125 71.296875 60.382812 C 75.804688 59.140625 79.433594 57.554688 81.96875 55.785156 C 84.503906 54.019531 86 52.046875 86 50 C 86 47.953125 84.503906 45.980469 81.96875 44.210938 C 79.433594 42.445312 75.804688 40.859375 71.296875 39.617188 C 71.25 39.605469 71.199219 39.597656 71.148438 39.597656 Z M 28.542969 40.730469 C 29.480469 43.703125 30.652344 46.808594 32.105469 50 C 30.652344 53.191406 29.480469 56.296875 28.542969 59.269531 C 24.335938 58.070312 20.914062 56.578125 18.605469 54.964844 C 16.207031 53.296875 15 51.546875 15 50 C 15 48.453125 16.207031 46.703125 18.605469 45.035156 C 20.914062 43.421875 24.335938 41.929688 28.542969 40.730469 Z M 71.457031 40.730469 C 75.664062 41.929688 79.085938 43.421875 81.394531 45.035156 C 83.792969 46.703125 85 48.453125 85 50 C 85 51.546875 83.792969 53.296875 81.394531 54.964844 C 79.085938 56.578125 75.664062 58.070312 71.457031 59.269531 C 70.519531 56.296875 69.347656 53.191406 67.894531 50 C 69.347656 46.808594 70.519531 43.703125 71.457031 40.730469 Z M 50 42 C 45.59375 42 42 45.59375 42 50 C 42 54.40625 45.59375 58 50 58 C 54.40625 58 58 54.40625 58 50 C 58 45.59375 54.40625 42 50 42 Z M 50 44 C 53.324219 44 56 46.675781 56 50 C 56 53.324219 53.324219 56 50 56 C 46.675781 56 44 53.324219 44 50 C 44 46.675781 46.675781 44 50 44 Z M 34.355469 53.046875 C 34.15625 53.042969 33.972656 53.164062 33.894531 53.351562 C 32.847656 55.824219 31.980469 58.210938 31.28125 60.480469 C 31.238281 60.613281 31.253906 60.757812 31.324219 60.878906 C 31.394531 61 31.511719 61.085938 31.648438 61.113281 C 33.941406 61.625 36.414062 62.050781 39.054688 62.367188 C 39.246094 62.390625 39.433594 62.300781 39.535156 62.136719 C 39.636719 61.972656 39.636719 61.765625 39.535156 61.601562 C 38.695312 60.28125 37.871094 58.933594 37.074219 57.539062 C 36.265625 56.125 35.511719 54.71875 34.800781 53.320312 C 34.714844 53.152344 34.542969 53.046875 34.355469 53.046875 Z M 65.628906 53.046875 C 65.445312 53.050781 65.28125 53.15625 65.199219 53.320312 C 64.488281 54.71875 63.730469 56.125 62.925781 57.539062 C 62.128906 58.929688 61.304688 60.28125 60.464844 61.601562 C 60.359375 61.765625 60.359375 61.972656 60.460938 62.136719 C 60.566406 62.300781 60.753906 62.390625 60.945312 62.367188 C 63.585938 62.050781 66.058594 61.625 68.351562 61.113281 C 68.484375 61.085938 68.605469 61 68.675781 60.878906 C 68.742188 60.757812 68.761719 60.613281 68.71875 60.480469 C 68.019531 58.210938 67.152344 55.824219 66.105469 53.351562 C 66.023438 53.160156 65.835938 53.039062 65.628906 53.046875 Z M 34.445312 54.761719 C 35.011719 55.847656 35.578125 56.9375 36.207031 58.035156 C 36.828125 59.121094 37.472656 60.160156 38.121094 61.195312 C 36.128906 60.929688 34.214844 60.617188 32.4375 60.234375 C 32.992188 58.480469 33.679688 56.640625 34.445312 54.761719 Z M 65.554688 54.761719 C 66.320312 56.640625 67.007812 58.480469 67.566406 60.234375 C 65.785156 60.617188 63.871094 60.929688 61.882812 61.195312 C 62.527344 60.160156 63.175781 59.121094 63.796875 58.035156 C 64.421875 56.9375 64.988281 55.847656 65.558594 54.761719 Z M 69.070312 63.023438 C 69.03125 63.023438 68.988281 63.03125 68.953125 63.039062 C 65.804688 63.746094 62.363281 64.28125 58.703125 64.609375 C 58.554688 64.625 58.421875 64.703125 58.339844 64.824219 C 56.191406 67.921875 53.957031 70.738281 51.710938 73.199219 C 51.53125 73.398438 51.539062 73.703125 51.726562 73.890625 C 55.78125 77.953125 59.757812 80.757812 63.242188 81.691406 C 65.054688 82.175781 66.644531 82.097656 67.894531 81.367188 C 69.65625 80.339844 70.609375 78.054688 70.875 74.96875 C 71.136719 71.882812 70.707031 67.9375 69.546875 63.402344 C 69.488281 63.183594 69.296875 63.03125 69.070312 63.023438 Z M 30.949219 63.027344 C 30.714844 63.023438 30.511719 63.175781 30.453125 63.402344 C 29.292969 67.9375 28.863281 71.882812 29.128906 74.96875 C 29.390625 78.054688 30.34375 80.339844 32.105469 81.367188 C 32.105469 81.371094 32.105469 81.371094 32.109375 81.371094 C 33.355469 82.097656 34.945312 82.175781 36.761719 81.691406 C 40.242188 80.757812 44.222656 77.953125 48.273438 73.894531 C 48.460938 73.703125 48.46875 73.398438 48.289062 73.203125 C 46.042969 70.738281 43.808594 67.921875 41.664062 64.824219 C 41.578125 64.703125 41.445312 64.625 41.296875 64.613281 C 37.640625 64.28125 34.195312 63.746094 31.046875 63.039062 C 31.015625 63.03125 30.980469 63.027344 30.949219 63.027344 Z M 68.660156 64.089844 C 69.710938 68.347656 70.117188 72.066406 69.878906 74.886719 C 69.628906 77.804688 68.71875 79.730469 67.390625 80.507812 C 66.433594 81.066406 65.148438 81.167969 63.5 80.726562 C 60.414062 79.898438 56.632812 77.273438 52.769531 73.472656 C 54.890625 71.109375 56.992188 68.476562 59.019531 65.574219 C 62.445312 65.253906 65.664062 64.742188 68.660156 64.089844 Z M 31.335938 64.09375 C 34.332031 64.746094 37.554688 65.253906 40.980469 65.574219 C 43.003906 68.476562 45.105469 71.113281 47.226562 73.472656 C 43.367188 77.277344 39.585938 79.898438 36.5 80.726562 C 34.851562 81.167969 33.566406 81.0625 32.609375 80.507812 C 31.28125 79.730469 30.371094 77.804688 30.121094 74.886719 C 29.882812 72.070312 30.289062 68.347656 31.335938 64.09375 Z M 45.109375 64.878906 C 44.925781 64.886719 44.761719 65 44.683594 65.164062 C 44.605469 65.328125 44.625 65.527344 44.734375 65.675781 C 46.335938 67.855469 47.980469 69.867188 49.628906 71.691406 C 49.722656 71.796875 49.859375 71.855469 50 71.855469 C 50.140625 71.855469 50.277344 71.796875 50.371094 71.691406 C 52.019531 69.867188 53.664062 67.851562 55.265625 65.675781 C 55.382812 65.519531 55.394531 65.3125 55.304688 65.140625 C 55.214844 64.972656 55.03125 64.871094 54.839844 64.878906 C 53.253906 64.957031 51.644531 65 50 65 C 48.355469 65 46.746094 64.957031 45.160156 64.878906 C 45.144531 64.878906 45.125 64.878906 45.109375 64.878906 Z M 46.207031 65.902344 C 47.460938 65.953125 48.710938 66 50 66 C 51.289062 66 52.539062 65.953125 53.792969 65.902344 C 52.539062 67.558594 51.273438 69.132812 50 70.566406 C 48.726562 69.132812 47.460938 67.558594 46.207031 65.902344 Z M 46.207031 65.902344 "/>
</g>
</svg>
